PathFileType	4	(X/Y/Z)	C:\Users\italobelli\Desktop\GitHub\PTbot_officialCBL\Personal_Results\SHRUG21_noisy2.trc
DataRate	CameraRate	NumFrames	NumMarkers	Units	OrigDataRate	OrigDataStartFrame	OrigNumFrames
112.250000	112.250000	34	9	m	112.250000	57	450
Frame#	Time		gu		centelbow		EpL		centpxt8		centijc7		ij		ts		aa		ai
			X1	Y1	Z1	X2	Y2	Z2	X3	Y3	Z3	X4	Y4	Z4	X5	Y5	Z5	X6	Y6	Z6	X7	Y7	Z7	X8	Y8	Z8	X9	Y9	Z9

57	0.49889	-0.077555	-0.019681	0.16784	-0.13606	-0.25119	0.18192	-0.11917	-0.24841	0.20924	-0.046816	-0.15316	-0.008669	-0.046816	0.031938	-0.008669	0	0	0	-0.13476	0.028068	0.055014	-0.10357	0.018269	0.16971	-0.15791	-0.083037	0.057234
58	0.5078	-0.077573	-0.019687	0.16785	-0.13614	-0.25105	0.1819	-0.11925	-0.24827	0.20922	-0.046816	-0.15316	-0.008669	-0.046816	0.031938	-0.008669	0	0	0	-0.13476	0.028107	0.055011	-0.10358	0.018281	0.16971	-0.15791	-0.083004	0.057212
59	0.5167	-0.077593	-0.019691	0.16785	-0.13623	-0.25092	0.18188	-0.11933	-0.24814	0.2092	-0.046816	-0.15316	-0.008669	-0.046816	0.031938	-0.008669	0	0	0	-0.13476	0.028149	0.055005	-0.10359	0.018297	0.16971	-0.1579	-0.082967	0.057183
60	0.52561	-0.077613	-0.019694	0.16785	-0.13631	-0.2508	0.18184	-0.11941	-0.24801	0.20917	-0.046816	-0.15316	-0.008669	-0.046816	0.031938	-0.008669	0	0	0	-0.13475	0.028195	0.054998	-0.1036	0.018316	0.16971	-0.1579	-0.082926	0.057146
61	0.53452	-0.077635	-0.019695	0.16785	-0.13638	-0.25067	0.18181	-0.11949	-0.24789	0.20913	-0.046816	-0.15316	-0.008669	-0.046816	0.031938	-0.008669	0	0	0	-0.13475	0.028244	0.054988	-0.10362	0.018338	0.1697	-0.1579	-0.082881	0.057103
62	0.54343	-0.077657	-0.019696	0.16785	-0.13646	-0.25055	0.18177	-0.11956	-0.24777	0.20909	-0.046816	-0.15316	-0.008669	-0.046816	0.031938	-0.008669	0	0	0	-0.13475	0.028297	0.054977	-0.10364	0.018362	0.1697	-0.1579	-0.082833	0.057053
63	0.55234	-0.077681	-0.019696	0.16785	-0.13653	-0.25044	0.18172	-0.11964	-0.24765	0.20905	-0.046816	-0.15316	-0.008669	-0.046816	0.031938	-0.008669	0	0	0	-0.13475	0.028353	0.054963	-0.10365	0.01839	0.16969	-0.1579	-0.082781	0.056996
64	0.56125	-0.077705	-0.019694	0.16784	-0.1366	-0.25032	0.18167	-0.1197	-0.24753	0.209	-0.046816	-0.15316	-0.008669	-0.046816	0.031938	-0.008669	0	0	0	-0.13474	0.028413	0.054948	-0.10367	0.018421	0.16968	-0.1579	-0.082726	0.056934
65	0.57016	-0.077731	-0.019691	0.16784	-0.13667	-0.25021	0.18161	-0.11977	-0.24742	0.20895	-0.046816	-0.15316	-0.008669	-0.046816	0.031938	-0.008669	0	0	0	-0.13474	0.028476	0.05493	-0.10369	0.018455	0.16967	-0.15791	-0.082667	0.056865
66	0.57906	-0.077758	-0.019687	0.16783	-0.13673	-0.2501	0.18155	-0.11983	-0.24731	0.20889	-0.046816	-0.15316	-0.008669	-0.046816	0.031938	-0.008669	0	0	0	-0.13474	0.028543	0.054911	-0.10372	0.018491	0.16965	-0.15791	-0.082605	0.056792
67	0.58797	-0.077785	-0.019683	0.16782	-0.13679	-0.24999	0.18149	-0.1199	-0.2472	0.20883	-0.046816	-0.15316	-0.008669	-0.046816	0.031938	-0.008669	0	0	0	-0.13474	0.028613	0.05489	-0.10374	0.018531	0.16964	-0.15791	-0.082539	0.056713
68	0.59688	-0.077814	-0.019677	0.16781	-0.13685	-0.24988	0.18142	-0.11995	-0.24709	0.20877	-0.046816	-0.15316	-0.008669	-0.046816	0.031938	-0.008669	0	0	0	-0.13474	0.028686	0.054867	-0.10376	0.018573	0.16962	-0.15792	-0.08247	0.056629
69	0.60579	-0.077844	-0.01967	0.16779	-0.1369	-0.24978	0.18135	-0.12001	-0.24698	0.2087	-0.046816	-0.15316	-0.008669	-0.046816	0.031938	-0.008669	0	0	0	-0.13474	0.028763	0.054842	-0.10379	0.018619	0.1696	-0.15792	-0.082397	0.056541
70	0.6147	-0.077875	-0.019662	0.16778	-0.13695	-0.24968	0.18128	-0.12006	-0.24688	0.20863	-0.046816	-0.15316	-0.008669	-0.046816	0.031938	-0.008669	0	0	0	-0.13474	0.028843	0.054815	-0.10382	0.018667	0.16958	-0.15793	-0.082321	0.056448
71	0.62361	-0.077906	-0.019652	0.16776	-0.137	-0.24958	0.1812	-0.12012	-0.24678	0.20855	-0.046816	-0.15316	-0.008669	-0.046816	0.031938	-0.008669	0	0	0	-0.13474	0.028926	0.054786	-0.10385	0.018718	0.16956	-0.15793	-0.082242	0.056351
72	0.63252	-0.077939	-0.019642	0.16774	-0.13705	-0.24948	0.18112	-0.12016	-0.24668	0.20848	-0.046816	-0.15316	-0.008669	-0.046816	0.031938	-0.008669	0	0	0	-0.13473	0.029012	0.054756	-0.10388	0.018772	0.16954	-0.15794	-0.08216	0.056251
73	0.64143	-0.077973	-0.019631	0.16772	-0.13709	-0.24938	0.18104	-0.12021	-0.24658	0.2084	-0.046816	-0.15316	-0.008669	-0.046816	0.031938	-0.008669	0	0	0	-0.13473	0.029101	0.054724	-0.10391	0.018829	0.16952	-0.15794	-0.082074	0.056147
74	0.65033	-0.078009	-0.019619	0.1677	-0.13713	-0.24928	0.18096	-0.12025	-0.24648	0.20832	-0.046816	-0.15316	-0.008669	-0.046816	0.031938	-0.008669	0	0	0	-0.13473	0.029193	0.05469	-0.10395	0.018889	0.16949	-0.15795	-0.081985	0.056039
75	0.65924	-0.078045	-0.019605	0.16768	-0.13717	-0.24918	0.18087	-0.12029	-0.24638	0.20823	-0.046816	-0.15316	-0.008669	-0.046816	0.031938	-0.008669	0	0	0	-0.13473	0.029289	0.054654	-0.10398	0.018952	0.16946	-0.15796	-0.081892	0.055929
76	0.66815	-0.078082	-0.019591	0.16766	-0.13721	-0.24909	0.18078	-0.12033	-0.24628	0.20815	-0.046816	-0.15316	-0.008669	-0.046816	0.031938	-0.008669	0	0	0	-0.13473	0.029387	0.054616	-0.10402	0.019018	0.16943	-0.15796	-0.081797	0.055816
77	0.67706	-0.07812	-0.019576	0.16763	-0.13724	-0.24899	0.18069	-0.12037	-0.24618	0.20806	-0.046816	-0.15316	-0.008669	-0.046816	0.031938	-0.008669	0	0	0	-0.13473	0.029488	0.054577	-0.10406	0.019086	0.1694	-0.15797	-0.081699	0.055701
78	0.68597	-0.07816	-0.01956	0.1676	-0.13727	-0.24889	0.1806	-0.1204	-0.24608	0.20797	-0.046816	-0.15316	-0.008669	-0.046816	0.031938	-0.008669	0	0	0	-0.13473	0.029592	0.054536	-0.1041	0.019158	0.16937	-0.15798	-0.081597	0.055584
79	0.69488	-0.0782	-0.019542	0.16758	-0.13729	-0.2488	0.1805	-0.12043	-0.24599	0.20788	-0.046816	-0.15316	-0.008669	-0.046816	0.031938	-0.008669	0	0	0	-0.13473	0.029699	0.054493	-0.10414	0.019232	0.16934	-0.15799	-0.081493	0.055465
80	0.70379	-0.078242	-0.019524	0.16755	-0.13732	-0.2487	0.18041	-0.12046	-0.24589	0.20779	-0.046816	-0.15316	-0.008669	-0.046816	0.031938	-0.008669	0	0	0	-0.13473	0.029808	0.054448	-0.10418	0.019309	0.1693	-0.158	-0.081385	0.055344
81	0.71269	-0.078284	-0.019505	0.16752	-0.13734	-0.24861	0.18031	-0.12048	-0.24579	0.2077	-0.046816	-0.15316	-0.008669	-0.046816	0.031938	-0.008669	0	0	0	-0.13473	0.02992	0.054402	-0.10423	0.019389	0.16927	-0.15801	-0.081274	0.055223
82	0.7216	-0.078328	-0.019485	0.16748	-0.13735	-0.24851	0.18022	-0.1205	-0.2457	0.20761	-0.046816	-0.15316	-0.008669	-0.046816	0.031938	-0.008669	0	0	0	-0.13473	0.030035	0.054354	-0.10427	0.019472	0.16923	-0.15802	-0.081161	0.0551
83	0.73051	-0.078373	-0.019463	0.16745	-0.13737	-0.24842	0.18012	-0.12052	-0.2456	0.20751	-0.046816	-0.15316	-0.008669	-0.046816	0.031938	-0.008669	0	0	0	-0.13473	0.030153	0.054305	-0.10432	0.019557	0.16919	-0.15802	-0.081045	0.054977
84	0.73942	-0.078419	-0.019441	0.16741	-0.13738	-0.24832	0.18002	-0.12054	-0.2455	0.20742	-0.046816	-0.15316	-0.008669	-0.046816	0.031938	-0.008669	0	0	0	-0.13473	0.030273	0.054253	-0.10437	0.019645	0.16915	-0.15803	-0.080925	0.054853
85	0.74833	-0.078466	-0.019418	0.16738	-0.13739	-0.24822	0.17993	-0.12055	-0.2454	0.20733	-0.046816	-0.15316	-0.008669	-0.046816	0.031938	-0.008669	0	0	0	-0.13474	0.030396	0.054201	-0.10442	0.019737	0.1691	-0.15804	-0.080803	0.054729
86	0.75724	-0.078514	-0.019394	0.16734	-0.13739	-0.24812	0.17983	-0.12056	-0.2453	0.20724	-0.046816	-0.15316	-0.008669	-0.046816	0.031938	-0.008669	0	0	0	-0.13474	0.030521	0.054146	-0.10447	0.019831	0.16906	-0.15805	-0.080678	0.054605
87	0.76615	-0.078564	-0.019369	0.1673	-0.13739	-0.24802	0.17973	-0.12057	-0.24519	0.20714	-0.046816	-0.15316	-0.008669	-0.046816	0.031938	-0.008669	0	0	0	-0.13474	0.030649	0.05409	-0.10452	0.019927	0.16902	-0.15806	-0.080551	0.054482
88	0.77506	-0.078614	-0.019344	0.16726	-0.13739	-0.24792	0.17964	-0.12058	-0.24509	0.20705	-0.046816	-0.15316	-0.008669	-0.046816	0.031938	-0.008669	0	0	0	-0.13474	0.030779	0.054033	-0.10458	0.020027	0.16897	-0.15807	-0.08042	0.05436
89	0.78396	-0.078666	-0.019317	0.16722	-0.13739	-0.24782	0.17954	-0.12058	-0.24499	0.20696	-0.046816	-0.15316	-0.008669	-0.046816	0.031938	-0.008669	0	0	0	-0.13474	0.030912	0.053974	-0.10463	0.020129	0.16892	-0.15808	-0.080287	0.054238
90	0.79287	-0.078719	-0.019289	0.16718	-0.13738	-0.24771	0.17945	-0.12058	-0.24488	0.20687	-0.046816	-0.15316	-0.008669	-0.046816	0.031938	-0.008669	0	0	0	-0.13474	0.031047	0.053913	-0.10469	0.020234	0.16887	-0.15809	-0.080152	0.054118
